<?xml version="1.0" standalone="no"?>
<!DOCTYPE svg PUBLIC "-//W3C//DTD SVG 20010904//EN"
 "http://www.w3.org/TR/2001/REC-SVG-20010904/DTD/svg10.dtd">
<svg version="1.0" xmlns="http://www.w3.org/2000/svg"
 width="288.000000pt" height="300.000000pt" viewBox="0 0 288.000000 300.000000"
 preserveAspectRatio="xMidYMid meet">

<g transform="translate(0.000000,300.000000) scale(0.100000,-0.100000)"
fill="#000000" stroke="none">
<path d="M1363 2881 c32 -29 47 -51 48 -69 2 -23 2 -24 6 -5 4 21 -41 103 -58
103 -4 0 -16 3 -26 7 -10 3 3 -13 30 -36z"/>
<path d="M1091 2783 c1 -10 24 -38 53 -63 28 -25 42 -34 30 -20 -73 89 -84
100 -83 83z"/>
<path d="M1820 2790 c-11 -7 -6 -8 16 -4 17 3 34 1 38 -4 3 -6 16 -8 28 -4 21
5 21 6 2 13 -27 11 -67 10 -84 -1z"/>
<path d="M1779 2763 c-13 -16 -12 -17 4 -4 16 13 21 21 13 21 -2 0 -10 -8 -17
-17z"/>
<path d="M1742 2702 l-23 -37 26 28 c14 15 25 32 25 38 0 14 -3 11 -28 -29z"/>
<path d="M1269 2683 l-24 -28 28 24 c25 23 32 31 24 31 -2 0 -14 -12 -28 -27z"/>
<path d="M1973 2689 c-18 -18 -16 -71 3 -95 15 -18 15 -18 5 3 -14 28 -14 60
0 65 6 2 10 12 8 21 -3 15 -6 16 -16 6z"/>
<path d="M1631 2664 c0 -11 3 -14 6 -6 3 7 2 16 -1 19 -3 4 -6 -2 -5 -13z"/>
<path d="M2210 2535 c7 -9 19 -39 26 -68 7 -29 13 -42 13 -29 1 13 6 20 11 17
14 -9 12 4 -7 52 -12 29 -24 43 -37 43 -15 0 -16 -2 -6 -15z"/>
<path d="M717 2453 c-13 -12 -7 -40 11 -54 15 -13 16 -12 3 3 -7 10 -11 27 -8
38 5 21 4 24 -6 13z"/>
<path d="M788 2373 c7 -3 16 -2 19 1 4 3 -2 6 -13 5 -11 0 -14 -3 -6 -6z"/>
<path d="M1267 2238 c-4 -16 -23 -35 -49 -51 -102 -60 -266 -269 -303 -388 -7
-21 -6 -22 8 -11 13 11 16 10 19 -5 2 -11 10 1 22 32 35 94 94 200 137 249 49
55 135 126 153 126 7 0 18 -22 25 -50 14 -56 76 -132 132 -164 39 -22 31 -13
-27 31 -54 42 -93 117 -102 195 -6 51 -9 58 -15 36z"/>
<path d="M2431 2241 c-7 -5 -9 -11 -4 -14 4 -3 17 1 28 9 21 16 0 20 -24 5z"/>
<path d="M1510 2201 c0 -5 -3 -17 -6 -26 -4 -9 -2 -15 4 -13 5 2 36 -28 68
-66 60 -72 156 -156 176 -156 6 0 -23 36 -65 79 -49 50 -86 99 -103 135 -21
46 -30 56 -50 56 -13 0 -24 -4 -24 -9z"/>
<path d="M1766 2110 c-7 -33 -3 -39 58 -105 36 -38 88 -107 116 -154 45 -77
50 -82 50 -52 0 17 -11 53 -25 80 -24 49 -127 184 -159 211 -10 8 -22 23 -26
35 -7 17 -9 15 -14 -15z"/>
<path d="M1931 2033 c11 -19 22 -23 59 -21 l45 1 -40 4 c-22 3 -49 12 -59 21
-18 16 -18 16 -5 -5z"/>
<path d="M885 1998 c-22 -21 -49 -38 -60 -39 -13 -1 -9 -4 10 -8 37 -8 42 -32
22 -104 -47 -161 -58 -237 -55 -361 2 -68 5 -122 8 -119 3 2 5 68 6 146 1 119
4 151 22 201 12 33 22 70 22 83 0 14 16 72 36 129 20 58 35 106 33 108 -2 1
-22 -15 -44 -36z"/>
<path d="M748 1943 c12 -2 30 -2 40 0 9 3 -1 5 -23 4 -22 0 -30 -2 -17 -4z"/>
<path d="M1477 1939 c7 -7 15 -10 18 -7 3 3 -2 9 -12 12 -14 6 -15 5 -6 -5z"/>
<path d="M1044 1919 c-7 -11 12 -29 31 -29 6 1 2 5 -8 11 -9 6 -15 14 -12 20
4 5 4 9 1 9 -3 0 -8 -5 -12 -11z"/>
<path d="M1834 1923 c4 -8 -5 -18 -26 -28 l-33 -15 30 6 c40 7 53 21 36 37
-11 9 -12 9 -7 0z"/>
<path d="M1100 1880 c8 -5 20 -10 25 -10 6 0 3 5 -5 10 -8 5 -19 10 -25 10 -5
0 -3 -5 5 -10z"/>
<path d="M2014 1861 c3 -18 6 -40 6 -48 0 -8 5 -11 10 -8 29 18 75 -192 68
-310 -3 -41 0 -50 15 -51 12 -1 13 0 2 3 -17 5 -18 21 -5 81 11 45 0 177 -20
252 -6 23 -27 58 -46 78 l-36 37 6 -34z"/>
<path d="M1200 1845 c19 -7 42 -13 50 -13 8 0 -1 6 -20 13 -19 7 -42 13 -50
13 -8 0 1 -6 20 -13z"/>
<path d="M1620 1834 l-45 -14 40 6 c22 3 47 10 55 15 21 12 3 10 -50 -7z"/>
<path d="M1278 1823 c7 -3 16 -2 19 1 4 3 -2 6 -13 5 -11 0 -14 -3 -6 -6z"/>
<path d="M1414 1808 l-19 -23 23 19 c21 18 27 26 19 26 -2 0 -12 -10 -23 -22z"/>
<path d="M1485 1810 c10 -11 20 -20 23 -20 3 0 -3 9 -13 20 -10 11 -20 20 -23
20 -3 0 3 -9 13 -20z"/>
<path d="M2181 1761 c-1 -51 0 -53 17 -39 9 8 26 21 37 27 20 12 20 12 -1 6
-16 -4 -24 2 -37 27 l-16 33 0 -54z"/>
<path d="M1724 1776 c-30 -13 -68 -55 -59 -64 2 -3 18 7 35 22 17 14 40 26 51
26 26 0 69 -23 93 -49 29 -32 40 -25 16 9 -40 56 -89 76 -136 56z"/>
<path d="M691 1754 c0 -11 3 -14 6 -6 3 7 2 16 -1 19 -3 4 -6 -2 -5 -13z"/>
<path d="M1120 1754 c-28 -18 -83 -85 -75 -92 2 -3 25 14 50 37 55 50 97 55
144 15 31 -26 43 -15 18 17 -30 40 -93 50 -137 23z"/>
<path d="M2370 1740 c0 -5 7 -7 15 -4 8 4 15 8 15 10 0 2 -7 4 -15 4 -8 0 -15
-4 -15 -10z"/>
<path d="M1405 1720 c-3 -5 1 -10 10 -10 9 0 13 5 10 10 -3 6 -8 10 -10 10 -2
0 -7 -4 -10 -10z"/>
<path d="M1485 1720 c-3 -5 3 -10 15 -10 12 0 18 5 15 10 -3 6 -10 10 -15 10
-5 0 -12 -4 -15 -10z"/>
<path d="M2280 1705 c-7 -9 -11 -17 -9 -20 3 -2 10 5 17 15 14 24 10 26 -8 5z"/>
<path d="M381 1654 c0 -11 3 -14 6 -6 3 7 2 16 -1 19 -3 4 -6 -2 -5 -13z"/>
<path d="M1667 1649 c7 -7 15 -10 18 -7 3 3 -2 9 -12 12 -14 6 -15 5 -6 -5z"/>
<path d="M1750 1638 c0 -13 12 -17 60 -20 36 -2 60 1 60 7 0 6 -21 9 -51 6
-36 -2 -54 1 -60 10 -7 11 -9 11 -9 -3z"/>
<path d="M1708 1633 c7 -3 16 -2 19 1 4 3 -2 6 -13 5 -11 0 -14 -3 -6 -6z"/>
<path d="M2420 1600 c-9 -16 -21 -20 -65 -20 -43 0 -56 -4 -64 -19 -14 -25
-17 -84 -6 -101 5 -8 12 -37 15 -65 l6 -50 22 35 c12 19 19 42 16 50 -17 41
-14 50 40 109 31 33 56 65 56 71 0 16 -8 12 -20 -10z"/>
<path d="M648 1581 c-12 -21 -28 -32 -60 -40 l-43 -11 39 5 c21 2 47 11 56 20
17 15 19 15 23 -2 3 -10 5 -1 6 20 0 20 0 37 -1 37 -2 0 -10 -13 -20 -29z"/>
<path d="M1423 1583 c15 -2 39 -2 55 0 15 2 2 4 -28 4 -30 0 -43 -2 -27 -4z"/>
<path d="M1343 1573 c9 -2 23 -2 30 0 6 3 -1 5 -18 5 -16 0 -22 -2 -12 -5z"/>
<path d="M1570 1565 c85 -18 123 -17 45 1 -33 7 -71 13 -85 13 -14 -1 4 -7 40
-14z"/>
<path d="M1275 1560 c-13 -5 -14 -9 -5 -9 8 0 24 4 35 9 13 5 14 9 5 9 -8 0
-24 -4 -35 -9z"/>
<path d="M490 1550 c8 -5 24 -10 34 -10 26 0 18 6 -19 14 -22 5 -26 4 -15 -4z"/>
<path d="M1175 1524 c-33 -14 -48 -22 -34 -19 30 5 120 44 104 44 -5 0 -37
-12 -70 -25z"/>
<path d="M1705 1541 c31 -9 102 -14 94 -7 -2 2 -31 6 -64 9 -39 4 -50 3 -30
-2z"/>
<path d="M1902 1523 c86 -4 87 -4 91 -31 4 -25 4 -24 6 6 l1 32 -92 -2 -93 -2
87 -3z"/>
<path d="M1035 1493 c-22 -3 -44 -8 -48 -12 -4 -4 20 -4 54 1 35 4 65 10 67
13 5 5 -1 5 -73 -2z"/>
<path d="M680 1484 c0 -5 5 -16 10 -24 7 -11 5 -17 -8 -22 -15 -6 -14 -7 4 -7
11 -1 26 -7 34 -13 7 -7 3 5 -10 27 -29 49 -30 51 -30 39z"/>
<path d="M930 1480 c0 -5 7 -7 15 -4 8 4 15 8 15 10 0 2 -7 4 -15 4 -8 0 -15
-4 -15 -10z"/>
<path d="M942 1425 c0 -16 2 -22 5 -12 2 9 2 23 0 30 -3 6 -5 -1 -5 -18z"/>
<path d="M1333 1430 c-87 -23 -142 -50 -192 -95 -41 -38 -78 -55 -119 -55 -26
-1 -26 -1 -7 -16 12 -9 31 -13 48 -10 27 6 37 -7 15 -20 -6 -4 -25 -10 -42
-14 l-31 -7 28 -13 c21 -10 33 -11 52 -2 15 7 25 8 25 2 0 -5 -12 -13 -27 -16
-16 -4 -31 -11 -34 -16 -10 -15 -37 2 -49 32 -7 16 -20 59 -31 97 -14 53 -17
58 -12 23 7 -58 48 -180 83 -250 25 -49 117 -150 136 -150 4 0 4 3 1 7 -4 3
-1 13 6 21 10 13 9 14 -2 8 -19 -12 -31 11 -31 60 0 38 5 47 56 93 69 63 124
81 264 88 175 9 298 -35 339 -121 17 -35 20 -49 11 -71 -16 -41 -6 -41 29 2
66 79 134 268 130 362 -1 14 -7 -7 -15 -47 -15 -86 -29 -109 -50 -87 -14 14
-9 45 7 45 18 0 8 18 -13 24 l-23 6 23 19 c12 11 22 21 22 24 0 2 -20 2 -45
-1 -39 -4 -51 0 -97 31 -29 20 -81 43 -114 51 -86 22 -249 20 -341 -4z m-193
-260 c-6 -11 -18 -20 -27 -20 -14 0 -14 2 2 20 10 11 22 20 27 20 5 0 4 -9 -2
-20z"/>
<path d="M2181 1437 c-24 -30 -42 -92 -39 -136 3 -44 2 -45 -32 -53 -19 -4
-40 -5 -47 -3 -8 3 -33 -41 -33 -60 0 -1 24 2 53 6 86 14 136 90 87 134 -23
21 -16 39 11 32 10 -3 22 -1 25 4 3 5 -2 9 -12 9 -13 0 -14 3 -4 15 17 20 37
19 43 -2 3 -12 5 -8 6 9 0 14 -2 33 -5 42 -7 19 -37 21 -53 3z m-1 -161 c0
-20 -67 -76 -92 -76 -20 0 -20 1 -4 19 10 11 28 21 40 23 11 2 25 13 31 26 11
25 25 29 25 8z"/>
<path d="M1981 1424 c0 -11 3 -14 6 -6 3 7 2 16 -1 19 -3 4 -6 -2 -5 -13z"/>
<path d="M636 1358 c-9 -12 -15 -34 -15 -48 2 -22 2 -23 6 -3 7 34 26 46 57
32 29 -14 26 -26 -11 -40 -14 -5 -23 -12 -20 -15 3 -3 20 1 38 10 17 9 35 13
40 10 11 -7 12 -34 1 -34 -5 0 -15 -11 -22 -25 -28 -52 42 -103 125 -90 60 9
53 28 -11 29 l-49 1 -5 45 c-7 53 -71 150 -100 150 -11 0 -26 -10 -34 -22z
m123 -158 c12 -35 0 -39 -29 -10 -25 25 -26 40 -1 40 12 0 23 -11 30 -30z m69
-37 c-10 -2 -26 -2 -35 0 -10 3 -2 5 17 5 19 0 27 -2 18 -5z"/>
<path d="M1563 1043 c15 -2 37 -2 50 0 12 2 0 4 -28 4 -27 0 -38 -2 -22 -4z"/>
<path d="M1225 980 c-3 -6 1 -7 9 -4 18 7 21 14 7 14 -6 0 -13 -4 -16 -10z"/>
<path d="M1824 897 c-22 -18 -51 -40 -65 -50 -23 -17 -23 -17 7 -1 30 16 114
83 104 83 -3 0 -23 -14 -46 -32z"/>
<path d="M1123 867 c15 -12 27 -33 27 -45 0 -12 10 -26 23 -33 30 -16 37 -30
26 -50 -5 -10 -9 -30 -9 -44 0 -73 48 -96 235 -110 39 -3 85 -8 102 -11 37 -7
100 25 152 77 34 34 33 35 50 -51 6 -30 20 -68 31 -85 l19 -30 -32 -35 c-31
-33 -30 -33 9 3 23 22 44 34 48 29 3 -6 -20 -34 -51 -63 -59 -54 -49 -50 20 7
l38 32 37 -18 c54 -26 86 -34 78 -21 -9 14 34 31 78 31 90 0 79 -119 -25 -274
l-41 -61 61 60 c34 33 59 52 55 43 -15 -41 8 -13 37 45 20 38 32 78 33 105 1
47 1 47 90 60 l48 7 -23 20 c-18 15 -20 15 -10 3 12 -17 10 -18 -28 -18 -22 0
-41 5 -41 10 0 6 -9 19 -20 30 -30 30 -10 24 22 -7 15 -15 28 -22 28 -16 0 24
-50 52 -83 46 -26 -4 -38 1 -64 26 -34 32 -49 38 -55 21 -1 -5 -13 -7 -25 -4
-12 4 -19 12 -17 19 3 7 -5 20 -18 29 -26 18 -38 20 -38 6 0 -5 6 -10 14 -10
8 0 17 -4 20 -9 3 -4 -7 -6 -22 -3 -31 6 -102 48 -102 61 0 5 -13 14 -29 21
-43 17 -73 109 -50 151 9 17 7 18 -16 9 -15 -6 -41 -10 -58 -10 -18 0 -43 -7
-56 -16 -20 -14 -41 -16 -135 -11 -128 7 -238 34 -311 78 -38 22 -43 24 -22 6z"/>
<path d="M1348 863 c7 -3 16 -2 19 1 4 3 -2 6 -13 5 -11 0 -14 -3 -6 -6z"/>
<path d="M1508 863 c7 -3 16 -2 19 1 4 3 -2 6 -13 5 -11 0 -14 -3 -6 -6z"/>
<path d="M1149 743 c-1 -47 -33 -128 -49 -125 -7 2 -32 -3 -54 -12 -23 -8 -66
-20 -97 -26 -31 -6 -74 -20 -95 -30 -21 -11 -46 -20 -56 -20 -24 0 -90 -60
-84 -76 3 -8 -1 -14 -10 -14 -16 0 -12 12 14 43 9 9 10 17 4 17 -6 0 -19 -11
-29 -23 -10 -13 -25 -26 -33 -30 -11 -4 -9 -6 5 -6 11 -1 30 -8 42 -16 16 -11
28 -13 48 -5 38 14 71 12 85 -5 10 -13 9 -15 -9 -15 -29 0 -27 -31 4 -68 18
-22 33 -29 62 -30 21 -1 71 -7 111 -13 40 -7 75 -9 78 -7 3 3 -35 11 -83 18
-119 16 -163 28 -163 45 0 7 -2 20 -6 28 -4 10 6 16 40 20 24 4 64 16 88 28
l44 21 70 -47 c69 -48 251 -141 260 -133 2 3 -28 19 -68 37 -123 54 -271 151
-255 167 3 4 14 1 24 -7 10 -8 14 -9 10 -2 -5 7 7 31 27 57 19 25 44 71 56
103 22 57 38 153 26 153 -3 0 -6 -12 -7 -27z"/>
<path d="M1768 693 c7 -3 16 -2 19 1 4 3 -2 6 -13 5 -11 0 -14 -3 -6 -6z"/>
<path d="M1790 673 c8 -3 24 -10 35 -15 20 -9 20 -9 1 6 -11 9 -27 16 -35 15
-14 0 -14 -1 -1 -6z"/>
<path d="M1063 663 c9 -2 23 -2 30 0 6 3 -1 5 -18 5 -16 0 -22 -2 -12 -5z"/>
<path d="M1015 650 c-3 -6 1 -7 9 -4 18 7 21 14 7 14 -6 0 -13 -4 -16 -10z"/>
<path d="M869 589 c-13 -11 -18 -18 -11 -14 57 29 65 35 51 35 -9 0 -27 -9
-40 -21z"/>
<path d="M2051 553 c7 -12 15 -20 18 -17 3 2 -3 12 -13 22 -17 16 -18 16 -5
-5z"/>
<path d="M1978 376 c2 -19 -1 -37 -7 -41 -7 -4 -42 -10 -79 -15 l-67 -7 79 -2
c65 -1 77 -3 72 -16 -17 -43 -17 -49 3 -25 24 29 29 111 8 128 -10 9 -12 4 -9
-22z"/>
<path d="M730 371 c0 -24 23 -49 113 -126 76 -65 90 -62 21 5 -25 25 -57 66
-72 92 -28 50 -62 65 -62 29z"/>
<path d="M1615 324 c-77 -49 -139 -77 -143 -65 -6 18 -72 14 -72 -4 0 -13 -4
-14 -21 -5 -11 7 -23 10 -25 7 -2 -2 7 -9 21 -15 21 -10 27 -9 31 3 8 19 39
20 56 2 10 -11 25 -6 84 27 73 42 123 75 114 75 -3 0 -23 -11 -45 -25z"/>
<path d="M1788 303 c7 -3 16 -2 19 1 4 3 -2 6 -13 5 -11 0 -14 -3 -6 -6z"/>
<path d="M1665 264 c-112 -51 -149 -71 -153 -83 -5 -15 23 -4 89 36 31 19 83
45 115 58 32 14 52 25 44 25 -8 0 -51 -16 -95 -36z"/>
<path d="M1143 265 c27 -7 74 -30 105 -51 63 -42 137 -60 146 -37 3 8 1 11 -5
8 -5 -4 -16 -2 -23 5 -8 6 -29 12 -48 14 -19 2 -55 15 -80 30 -48 28 -101 47
-128 45 -8 0 7 -7 33 -14z"/>
<path d="M1425 230 c-4 -6 3 -10 14 -10 25 0 27 6 6 13 -8 4 -17 2 -20 -3z"/>
<path d="M1790 163 c-58 -61 -59 -62 -9 -14 38 35 58 48 61 40 3 -8 7 -2 10
14 3 15 5 27 4 27 -1 0 -31 -30 -66 -67z"/>
<path d="M1884 188 l-19 -23 23 19 c21 18 27 26 19 26 -2 0 -12 -10 -23 -22z"/>
<path d="M1482 170 c0 -14 2 -19 5 -12 2 6 2 18 0 25 -3 6 -5 1 -5 -13z"/>
<path d="M1461 154 c0 -11 3 -14 6 -6 3 7 2 16 -1 19 -3 4 -6 -2 -5 -13z"/>
<path d="M1830 157 c0 -8 -7 -20 -16 -27 -8 -8 -20 -23 -26 -34 -6 -12 -6 -16
-2 -11 5 6 22 24 37 41 18 20 25 34 18 38 -6 4 -11 1 -11 -7z"/>
<path d="M1100 154 c0 -13 18 -39 24 -34 2 3 -2 14 -10 24 -8 11 -14 16 -14
10z"/>
<path d="M1486 124 c-4 -9 -9 -14 -12 -11 -4 3 -12 1 -18 -6 -14 -15 -40 -97
-32 -104 3 -3 10 16 17 42 9 34 18 49 35 56 13 4 24 15 24 24 0 20 -6 19 -14
-1z"/>
<path d="M795 100 c9 -45 37 -94 56 -98 8 -1 18 11 25 33 13 42 10 45 -10 8
l-14 -27 -16 37 c-8 21 -22 47 -31 60 -16 22 -17 21 -10 -13z"/>
<path d="M136 88 c-5 -21 -4 -21 54 -4 l45 13 -47 4 c-38 3 -48 1 -52 -13z"/>
<path d="M1102 70 c0 -14 2 -19 5 -12 2 6 2 18 0 25 -3 6 -5 1 -5 -13z"/>
<path d="M1666 81 c-4 -5 3 -7 14 -4 23 6 26 13 6 13 -8 0 -17 -4 -20 -9z"/>
<path d="M1190 71 c0 -5 7 -15 17 -22 15 -13 15 -12 4 9 -12 23 -21 28 -21 13z"/>
<path d="M965 34 c0 -21 5 -34 13 -34 6 0 12 11 12 24 0 13 -6 28 -12 34 -10
8 -13 2 -13 -24z"/>
<path d="M1690 67 c0 -2 15 -16 33 -33 l32 -29 -29 33 c-28 30 -36 37 -36 29z"/>
<path d="M1790 44 c0 -10 5 -26 10 -34 8 -11 9 -7 4 15 -8 37 -14 45 -14 19z"/>
<path d="M2655 28 c-19 -12 -19 -12 5 -19 14 -4 48 -7 75 -8 47 0 49 0 25 13
-39 21 -83 27 -105 14z"/>
</g>
</svg>
